<svg width="11" height="15" viewBox="0 0 11 15" fill="none" xmlns="http://www.w3.org/2000/svg">
<rect x="6.42773" y="2.14282" width="2.14286" height="2.14286" transform="rotate(-180 6.42773 2.14282)" fill="white"/>
<rect x="6.42773" y="4.28564" width="2.14286" height="2.14286" transform="rotate(-180 6.42773 4.28564)" fill="white"/>
<rect x="6.42773" y="6.42847" width="2.14286" height="2.14286" transform="rotate(-180 6.42773 6.42847)" fill="white"/>
<rect x="6.42773" y="8.57153" width="2.14286" height="2.14286" transform="rotate(-180 6.42773 8.57153)" fill="white"/>
<rect x="6.42773" y="10.7144" width="2.14286" height="2.14286" transform="rotate(-180 6.42773 10.7144)" fill="white"/>
<rect x="6.42773" y="12.8572" width="2.14286" height="2.14286" transform="rotate(-180 6.42773 12.8572)" fill="white"/>
<rect x="6.42773" y="15" width="2.14286" height="2.14286" transform="rotate(-180 6.42773 15)" fill="white"/>
<rect x="4.28516" y="12.8572" width="2.14286" height="2.14286" transform="rotate(-180 4.28516 12.8572)" fill="white"/>
<rect x="2.14258" y="10.7144" width="2.14286" height="2.14286" transform="rotate(-180 2.14258 10.7144)" fill="white"/>
<rect x="8.57129" y="12.8572" width="2.14286" height="2.14286" transform="rotate(-180 8.57129 12.8572)" fill="white"/>
<rect x="10.7139" y="10.7144" width="2.14286" height="2.14286" transform="rotate(-180 10.7139 10.7144)" fill="white"/>
</svg>
