<svg width="20" height="15" viewBox="0 0 20 15" fill="none" xmlns="http://www.w3.org/2000/svg">
<rect x="4.28613" y="12.8572" width="2.14286" height="2.14286" fill="white"/>
<rect x="4.28613" y="10.7144" width="2.14286" height="2.14286" fill="white"/>
<rect x="4.28613" y="8.57153" width="2.14286" height="2.14286" fill="white"/>
<rect x="4.28613" y="6.42847" width="2.14286" height="2.14286" fill="white"/>
<rect x="4.28613" y="4.28564" width="2.14286" height="2.14286" fill="white"/>
<rect x="4.28613" y="2.14282" width="2.14286" height="2.14286" fill="white"/>
<rect x="4.28613" width="2.14286" height="2.14286" fill="white"/>
<rect x="6.42871" y="2.14282" width="2.14286" height="2.14286" fill="white"/>
<rect x="8.57129" y="4.28564" width="2.14286" height="2.14286" fill="white"/>
<rect x="2.14258" y="2.14282" width="2.14286" height="2.14286" fill="white"/>
<rect y="4.28564" width="2.14286" height="2.14286" fill="white"/>
<rect x="15.4277" y="2.14282" width="2.14286" height="2.14286" transform="rotate(-180 15.4277 2.14282)" fill="white"/>
<rect x="15.4277" y="4.28564" width="2.14286" height="2.14286" transform="rotate(-180 15.4277 4.28564)" fill="white"/>
<rect x="15.4277" y="6.42847" width="2.14286" height="2.14286" transform="rotate(-180 15.4277 6.42847)" fill="white"/>
<rect x="15.4277" y="8.57153" width="2.14286" height="2.14286" transform="rotate(-180 15.4277 8.57153)" fill="white"/>
<rect x="15.4277" y="10.7144" width="2.14286" height="2.14286" transform="rotate(-180 15.4277 10.7144)" fill="white"/>
<rect x="15.4277" y="12.8572" width="2.14286" height="2.14286" transform="rotate(-180 15.4277 12.8572)" fill="white"/>
<rect x="15.4277" y="15" width="2.14286" height="2.14286" transform="rotate(-180 15.4277 15)" fill="white"/>
<rect x="13.2852" y="12.8572" width="2.14286" height="2.14286" transform="rotate(-180 13.2852 12.8572)" fill="white"/>
<rect x="11.1426" y="10.7144" width="2.14286" height="2.14286" transform="rotate(-180 11.1426 10.7144)" fill="white"/>
<rect x="17.5713" y="12.8572" width="2.14286" height="2.14286" transform="rotate(-180 17.5713 12.8572)" fill="white"/>
<rect x="19.7139" y="10.7144" width="2.14286" height="2.14286" transform="rotate(-180 19.7139 10.7144)" fill="white"/>
</svg>
